<svg width="465" height="154" viewBox="0 0 465 154" fill="none" xmlns="http://www.w3.org/2000/svg">
<g clip-path="url(#clip0_103_114)">
<path d="M12.3546 17.2673H1.53369V7.54639H38.7678V17.2673H28.0321V43.5309H12.3546V17.2673Z" fill="white"/>
<path d="M76.7261 30.1859H58.4925V33.8526H79.0266L77.1947 43.5309H43.2836V7.54639H77.6633V17.2673H58.4925V20.5076H76.7261V30.2286V30.1859Z" fill="white"/>
<path d="M124.824 30.2286C123.077 40.0774 115.238 44.4262 103.565 44.4262C89.7196 44.4262 82.0087 36.7944 82.0087 25.4107C82.0087 15.3487 88.3138 6.6084 104.034 6.6084C118.135 6.6084 124.099 13.2169 124.994 20.6355H109.189C108.763 18.0774 107.74 15.7324 104.076 15.7324C100.413 15.7324 98.5382 18.8448 98.5382 25.4107C98.5382 30.1006 99.3903 34.9611 104.076 34.9611C107.698 34.9611 108.848 32.8293 109.402 30.2712H124.824V30.2286Z" fill="white"/>
<path d="M129.084 7.54639H144.804V19.9534H153.197V7.54639H168.917V43.5309H153.197V29.6743H144.804V43.5309H129.084V7.54639Z" fill="white"/>
<path d="M233.629 21.3603L222.595 33.9378C216.759 40.589 211.306 44.213 201.507 44.213C190.814 44.213 185.446 39.6084 185.446 33.1277C185.446 28.2246 188.769 25.1975 200.655 21.7867C206.364 20.1665 207.258 18.1626 207.258 16.8409C207.258 15.1355 206.151 14.2828 204.702 14.2828C203.509 14.2828 202.572 15.0502 202.572 16.3719C202.572 18.1626 204.319 19.4843 208.323 21.5308L234.524 43.5735H216.503L195.117 26.5618C191.538 23.9611 189.408 21.1045 189.408 17.3525C189.408 12.4921 193.157 7.29053 204.191 7.29053C213.436 7.29053 218.889 11.8525 218.889 17.0115C218.889 21.8719 214.841 24.0037 205.384 26.6045C199.675 28.182 198.142 29.9301 198.142 31.7634C198.142 34.151 200.229 35.8138 203.722 35.8138C207.727 35.8138 211.05 33.0425 213.521 29.9301L220.337 21.4029H233.672L233.629 21.3603Z" fill="white"/>
<path d="M263.024 32.7441C263.365 34.2363 264.302 35.8991 267.071 35.8991C269.159 35.8991 270.309 35.089 270.309 33.8526C270.309 32.6162 269.968 31.6355 264.089 30.5696C249.988 28.0115 248.625 22.8526 248.625 18.2479C248.625 11.5968 254.547 6.6084 266.56 6.6084C277.552 6.6084 284.794 10.5309 285.348 17.7363H270.565C270.267 16.2014 269.457 15.0076 267.029 15.0076C265.282 15.0076 264.43 15.6898 264.43 16.7131C264.43 17.9495 265.964 18.5464 269.968 19.2712C283.132 21.5735 286.668 26.0929 286.668 31.7634C286.668 39.5658 279.426 44.4262 267.412 44.4262C254.334 44.4262 248.412 39.3099 247.347 32.7014H263.067L263.024 32.7441Z" fill="white"/>
<path d="M299.108 17.2673H288.287V7.54639H325.521V17.2673H314.786V43.5309H299.108V17.2673Z" fill="white"/>
<path d="M372.17 25.5386C372.17 36.1123 365.269 44.4689 349.591 44.4689C335.448 44.4689 327.779 36.2828 327.779 25.5813C327.779 15.6045 333.957 6.6084 350.273 6.6084C363.607 6.6084 372.213 14.5386 372.213 25.5386H372.17ZM344.351 25.2828C344.351 30.9107 345.587 34.9611 350.188 34.9611C354.789 34.9611 355.641 30.9107 355.641 25.6239C355.641 19.1859 354.448 15.7751 349.932 15.7751C345.842 15.7751 344.351 19.1859 344.351 25.3255V25.2828Z" fill="white"/>
<path d="M392.705 30.8255V43.5735H377.41V7.54639H402.205C411.961 7.54639 416.562 12.151 416.562 17.7789C416.562 22.2983 414.091 25.2402 410.342 26.6472C413.494 27.9689 415.539 30.4417 415.539 35.8138V37.9456C415.539 39.31 415.624 41.7828 416.093 43.5735H401.012C400.458 42.2092 400.245 39.5658 400.245 36.3681V35.089C400.245 31.5929 399.393 30.8255 395.729 30.8255H392.662H392.705ZM392.705 22.5541H397.22C399.01 22.5541 401.054 21.872 401.054 19.5696C401.054 17.5658 399.521 16.5425 397.135 16.5425H392.747V22.5115L392.705 22.5541Z" fill="white"/>
<path d="M431.259 43.531V31.4651C431.259 30.7403 431.089 30.4419 430.663 29.7171L416.86 7.50391H435.051C437.053 12.0659 438.203 15.6473 439.95 20.0388C441.441 15.9031 442.677 12.7055 444.807 7.50391H461.464L447.405 29.9729C447.192 30.314 446.979 30.8256 446.979 31.721V43.531H431.259Z" fill="white"/>
<path d="M128.615 137.67V154H0V60.0308H14.2716V137.67H128.615Z" fill="white"/>
<path d="M233.671 58.7094L231.456 56.3218H222.808L221.402 57.814L140.373 145.43L149.575 153.957H154.73L181.186 125.349H273.76L300.557 153.957H303.922L314.061 144.492L233.714 58.7094H233.671ZM196.31 109.062L227.153 75.6784L258.423 109.062H196.267H196.31Z" fill="white"/>
<path d="M451.666 104.969C459.121 100.279 464.063 91.9651 464.063 82.5C464.063 67.8333 452.177 55.938 437.522 55.938C436.84 55.938 436.158 55.938 435.477 56.0233V55.938H327.055V154H435.477V153.915C436.158 153.915 436.84 154 437.522 154C452.177 154 464.063 142.105 464.063 127.438C464.063 117.973 459.121 109.659 451.666 104.969ZM435.519 137.671H341.369V113.155H435.519C442.293 113.155 447.789 118.612 447.789 125.434C447.789 132.256 442.336 137.713 435.519 137.713V137.671ZM435.519 96.783H341.369V72.2675H435.519C442.293 72.2675 447.789 77.7248 447.789 84.5465C447.789 91.3682 442.336 96.8256 435.519 96.8256V96.783Z" fill="white"/>
</g>
<defs>
<clipPath id="clip0_103_114">
<rect width="465" height="154" fill="white"/>
</clipPath>
</defs>
</svg>
