<?xml version="1.0" encoding="UTF-8"?>
<svg xmlns="http://www.w3.org/2000/svg" version="1.1" viewBox="0 0 23 28">
  <defs>
    <style>
      .cls-1 {
        fill: #fff;
        fill-rule: evenodd;
      }
    </style>
  </defs>
  <!-- Generator: Adobe Illustrator 28.7.1, SVG Export Plug-In . SVG Version: 1.2.0 Build 142)  -->
  <g>
    <g id="Layer_1">
      <path class="cls-1" d="M17.4,18.9c1.5-2.2,2.2-5,2-7.9-.2-2.8-1.4-5.4-3.3-7.3-1.9-1.9-4.3-2.9-6.7-2.8-2.5,0-4.8,1.2-6.6,3.2C1.1,6.2,0,8.9,0,11.7c0,2.8.8,5.6,2.4,7.7,1.6,2.1,3.9,3.5,6.4,3.7,2.5.3,4.9-.6,6.9-2.3h0c0,0,5.2,6,5.2,6,.1.1.2.2.4.3.1,0,.3.1.5.1s.3,0,.5-.1c.1,0,.3-.2.4-.3.1-.1.2-.3.3-.5,0-.2,0-.3,0-.5s0-.4,0-.5c0-.2-.2-.3-.3-.5l-5.2-5.9h0ZM14.9,6.1c.7.8,1.2,1.7,1.6,2.7.4,1,.6,2.1.6,3.2,0,1.1-.2,2.2-.5,3.2-.4,1-.9,1.9-1.6,2.7-.7.8-1.5,1.4-2.4,1.8-.9.4-1.8.6-2.8.6-1,0-1.9-.2-2.8-.7-.9-.4-1.7-1.1-2.4-1.8-1.4-1.6-2.1-3.7-2.1-5.9,0-2.2.8-4.3,2.1-5.9,1.4-1.6,3.2-2.4,5.1-2.4,1.9,0,3.8.9,5.1,2.4Z"/>
    </g>
  </g>
</svg>