<svg width="23" height="28" viewBox="0 0 23 28" fill="none" xmlns="http://www.w3.org/2000/svg">
<path fill-rule="evenodd" clip-rule="evenodd" d="M17.4265 18.8636C18.9436 16.6279 19.6586 13.8156 19.426 10.9987C19.1934 8.18182 18.0307 5.57202 16.1745 3.70024C14.3182 1.82846 11.9078 0.835297 9.4336 0.922809C6.95942 1.01032 4.60734 2.17193 2.85586 4.17132C1.10285 6.17209 0.08327 8.86161 0.00487895 11.6918C-0.0735121 14.522 0.79519 17.2798 2.43396 19.4034C4.07273 21.5269 6.35822 22.8562 8.82471 23.1205C11.2912 23.3848 13.753 22.5642 15.7085 20.8258L15.7609 20.8884L20.9219 26.789C21.0349 26.9182 21.1691 27.0207 21.3168 27.0906C21.4645 27.1605 21.6228 27.1965 21.7827 27.1965C21.9425 27.1965 22.1008 27.1605 22.2485 27.0906C22.3962 27.0207 22.5304 26.9182 22.6435 26.789C22.7565 26.6598 22.8462 26.5064 22.9073 26.3375C22.9685 26.1687 23 25.9878 23 25.8051C23 25.6223 22.9685 25.4414 22.9073 25.2726C22.8462 25.1038 22.7565 24.9504 22.6435 24.8212L17.4812 18.922L17.4265 18.8636ZM14.9007 6.1391C15.5876 6.91158 16.1339 7.83187 16.5081 8.8469C16.8823 9.86192 17.077 10.9516 17.0809 12.053C17.0849 13.1545 16.8979 14.2459 16.531 15.2644C16.164 16.2829 15.6243 17.2082 14.9429 17.9871C14.2615 18.7659 13.4519 19.3829 12.5609 19.8023C11.6699 20.2217 10.715 20.4354 9.75137 20.4309C8.78773 20.4264 7.83442 20.2039 6.9464 19.7762C6.05838 19.3484 5.25324 18.724 4.57742 17.9388C3.22684 16.3697 2.47341 14.2542 2.48125 12.053C2.48909 9.85187 3.25757 7.74342 4.61928 6.18695C5.981 4.63048 7.82563 3.7521 9.75137 3.74313C11.6771 3.73417 13.5279 4.59535 14.9007 6.1391Z" fill="white"/>
</svg>
